<svg xmlns="http://www.w3.org/2000/svg" width="14.346" height="16.396" viewBox="0 0 14.346 16.396">
  <path id="Icon_awesome-book" data-name="Icon awesome-book" d="M14.346,11.528V.769A.767.767,0,0,0,13.578,0H3.074A3.075,3.075,0,0,0,0,3.074V13.321A3.075,3.075,0,0,0,3.074,16.4h10.5a.767.767,0,0,0,.769-.769v-.512a.775.775,0,0,0-.285-.6,7.141,7.141,0,0,1,0-2.392A.763.763,0,0,0,14.346,11.528ZM4.1,4.291A.193.193,0,0,1,4.291,4.1H11.08a.193.193,0,0,1,.192.192v.64a.193.193,0,0,1-.192.192H4.291A.193.193,0,0,1,4.1,4.931Zm0,2.049a.193.193,0,0,1,.192-.192H11.08a.193.193,0,0,1,.192.192v.64a.193.193,0,0,1-.192.192H4.291A.193.193,0,0,1,4.1,6.981Zm8.115,8.006H3.074a1.025,1.025,0,0,1,0-2.049h9.139A11.529,11.529,0,0,0,12.213,14.346Z" fill="#32658c"/>
</svg>
