<?xml version="1.0" encoding="utf-8"?>
<!-- Generator: Adobe Illustrator 25.4.2, SVG Export Plug-In . SVG Version: 6.00 Build 0)  -->
<svg version="1.1" id="Layer_1" xmlns="http://www.w3.org/2000/svg" xmlns:xlink="http://www.w3.org/1999/xlink" x="0px" y="0px"
	 viewBox="0 0 215 196" style="enable-background:new 0 0 215 196;" xml:space="preserve">
<style type="text/css">
	.st0{fill:#33608C;stroke:#1F435E;stroke-width:2.734;stroke-miterlimit:10;}
	.st1{fill:#85A0BA;}
	.st2{fill:#1F435E;}
	.st3{fill:#FFFFFF;}
</style>
<g id="Group_371" transform="translate(-16.492 -199.527)">
	<g id="Group_370">
		<rect id="Rectangle_579" x="75.26" y="238.21" class="st0" width="107.78" height="85.8"/>
		<rect id="Rectangle_580" x="157.29" y="317.58" class="st1" width="17.88" height="5.15"/>
		<rect id="Rectangle_581" x="132.18" y="316.33" class="st2" width="22.23" height="6.41"/>
		<rect id="Rectangle_582" x="68.71" y="321.17" class="st2" width="121.67" height="7.8"/>
		<path id="Path_414" class="st3" d="M104.01,318.78l-2.67-2.26l40.51-47.07l1.87,1.58L104.01,318.78z"/>
		<path id="Path_415" class="st1" d="M94.1,324.23L82.32,301.9c-1.07-2.48,2.19-5.18,4.66-6.25l0.05-0.06
			c2.48-1.06,5.36,0.08,6.43,2.56l9.63,22.21c1.06,2.48-0.08,5.36-2.56,6.43l0,0C98.05,327.85,95.18,326.71,94.1,324.23z"/>
		<path id="Rectangle_583" class="st1" d="M116.1,299.32l2.93,2.55c1.25,1.09,1.38,2.99,0.29,4.25l-17.92,20.57
			c-1.09,1.25-2.99,1.38-4.25,0.29l-2.93-2.55c-1.25-1.09-1.38-2.99-0.29-4.25l17.92-20.57
			C112.95,298.36,114.85,298.23,116.1,299.32z"/>
		<g id="Group_369">
			<path id="Path_416" class="st1" d="M70.31,293.27c2.12-0.02,4.05-1.21,5.03-3.09c0-0.05-0.03-0.07-0.02-0.13
				c0.01-0.11,0.01-0.23,0-0.34c0-0.41-0.06-3.44-0.06-3.44c0.84-1.29,1.56-2.67,2.14-4.1c1.3-0.01,3.28-6.92,2.04-7.65
				c0.05-0.43,0.08-0.87,0.08-1.3v-2.72c0.01-5.1-4.1-9.24-9.2-9.28h-0.03c-5.1,0.04-9.21,4.18-9.2,9.28v2.72
				c0.01,0.43,0.03,0.87,0.08,1.3c-1.23,0.73,0.74,7.64,2.04,7.65c0.61,1.48,2.14,8.12,2.14,8.12
				C66.34,292.12,68.24,293.25,70.31,293.27z"/>
			<g id="Group_368">
				<path id="Path_417" class="st1" d="M93.75,297.78c-0.92-1.91-2.58-3.36-4.61-3.99c-2.74-0.84-5.48-1.64-8.21-2.49
					c-1.1-0.34-2.17-0.77-3.26-1.14c-0.29-0.1-2.08-0.54-2.08-0.54s-2.26,3.65-5.25,3.65c-2.92,0-5.16-3.51-5.16-3.51l-1.65,0.1
					c-0.06,0.06-0.13,0.11-0.21,0.14c-2.33,0.76-4.65,1.55-6.98,2.3c-1.67,0.54-3.37,1.03-5.04,1.57c-1.88,0.63-3.43,1.99-4.31,3.76
					c-1.1,1.99-5.26,37.52-5.38,38.58l8.7-0.01l3.79-23.33l1.64,23.33H83.8l4.75-32.84h6.71C94.67,301.41,94.12,298.49,93.75,297.78
					z"/>
			</g>
		</g>
		<circle id="Ellipse_21" class="st1" cx="115.15" cy="303.1" r="5.8"/>
	</g>
</g>
</svg>
