<svg xmlns="http://www.w3.org/2000/svg" width="10.798" height="15.707" viewBox="0 0 10.798 15.707">
  <path id="Icon_awesome-lightbulb" data-name="Icon awesome-lightbulb" d="M2.947,13.938a.982.982,0,0,0,.164.543l.524.788a.981.981,0,0,0,.817.438H6.346a.981.981,0,0,0,.817-.438l.524-.788a.981.981,0,0,0,.164-.543V12.762H2.945l0,1.176ZM0,5.4A5.369,5.369,0,0,0,1.336,8.951a8.816,8.816,0,0,1,1.6,2.805l0,.024H7.857l0-.024a8.816,8.816,0,0,1,1.6-2.805A5.4,5.4,0,1,0,0,5.4ZM5.4,2.945A2.457,2.457,0,0,0,2.945,5.4a.491.491,0,0,1-.982,0A3.44,3.44,0,0,1,5.4,1.963a.491.491,0,1,1,0,.982Z" transform="translate(0 0)" fill="#32658c"/>
</svg>
