<?xml version="1.0" encoding="utf-8"?>
<!-- Generator: Adobe Illustrator 25.4.2, SVG Export Plug-In . SVG Version: 6.00 Build 0)  -->
<svg version="1.1" id="Layer_1" xmlns="http://www.w3.org/2000/svg" xmlns:xlink="http://www.w3.org/1999/xlink" x="0px" y="0px"
	 viewBox="0 0 178 122" style="enable-background:new 0 0 178 122;" xml:space="preserve">
<style type="text/css">
	.st0{fill:#33608C;}
	.st1{fill:#ADBFD1;}
	.st2{fill:#85A0BA;}
	.st3{fill:#D6DFE8;}
	.st4{fill:#FFFFFF;}
	.st5{fill:none;stroke:#ADBFD1;stroke-width:1.461;stroke-miterlimit:10;}
	.st6{opacity:0.8;fill:#33608C;enable-background:new    ;}
	.st7{fill:none;stroke:#D6DFE8;stroke-width:1.461;stroke-linecap:round;stroke-linejoin:round;}
	.st8{fill:none;stroke:#ADBFD1;stroke-width:1.461;stroke-linecap:round;stroke-linejoin:round;}
</style>
<g id="Group_364" transform="translate(-52.643 -460.21)">
	<path id="Path_400" class="st0" d="M201.67,566.65H86.2c-1.01,0.08-1.9-0.68-1.98-1.69c-0.01-0.08-0.01-0.17,0-0.25L90.33,502
		c0.22-0.96,1.1-1.62,2.09-1.55h103.05c0.98-0.07,1.87,0.59,2.09,1.55l6.11,62.71c0.06,1.01-0.72,1.88-1.73,1.94
		C201.84,566.66,201.76,566.65,201.67,566.65z"/>
	<path id="Path_401" class="st0" d="M152.21,568.07h-16.55c-1.1-0.03-1.97-0.94-1.94-2.04c0-0.01,0-0.02,0-0.03l0.08-5.24
		c-0.01-1.08,0.85-1.97,1.94-2h16.39c1.08,0.03,1.94,0.92,1.94,2l0.08,5.24c0.04,1.1-0.81,2.02-1.91,2.07
		C152.23,568.07,152.22,568.07,152.21,568.07z"/>
	<g id="Group_360">
		<path id="Path_402" class="st1" d="M99.55,495.7l-5.51,4.76l-5.67,62.42h55.58V545.5L99.55,495.7z"/>
		<path id="Path_403" class="st2" d="M188.32,495.7l5.51,4.76l5.67,62.42h-55.58V545.5L188.32,495.7z"/>
		<path id="Path_404" class="st3" d="M143.97,497.2c-0.81-0.6-1.69-1.11-2.62-1.5c0,0-7.62-2.92-20.01-0.24
			c-7.19,1.58-14.63,1.66-21.85,0.24l-4.98,60.99c8.02,1.76,16.33,1.65,24.3-0.3c9.6-2.3,16.58-1.26,19.97-0.41
			c0.26,0.06,0.53,0.13,0.79,0.2c1.56,0.41,3.04,1.06,4.4,1.93V497.2z"/>
		<path id="Path_405" class="st1" d="M143.97,497.2c0.76-0.62,1.61-1.12,2.52-1.5c0,0,7.62-2.92,20-0.24
			c7.19,1.58,14.63,1.66,21.85,0.24l4.98,60.99c-8.02,1.76-16.33,1.65-24.3-0.3c-9.6-2.3-16.58-1.26-19.97-0.41
			c-0.26,0.06-0.53,0.13-0.79,0.2c-1.53,0.39-2.98,1.04-4.28,1.93L143.97,497.2z"/>
	</g>
	<g id="omfpOp.tif">
		<g id="Group_361">
			<path id="Path_406" class="st4" d="M144.27,533.94c-2.05,0-4.1,0.01-6.15-0.01c-1.01,0.11-1.91-0.62-2.02-1.63
				c-0.01-0.1-0.01-0.2-0.01-0.3c-0.07-5.16-1.72-10.17-4.72-14.36c-1.79-2.43-3.26-5.08-4.38-7.89c-2.17-6.3-2.01-12.43,1.75-18.15
				c6.99-10.64,22.78-11.14,30.35-0.94c4.7,6.33,4.97,13.23,1.94,20.27c-1.35,2.79-2.91,5.47-4.66,8.03
				c-2.5,3.87-3.86,8.37-3.9,12.97c0.09,1.02-0.67,1.91-1.69,1.99c-0.12,0.01-0.24,0.01-0.37-0.01
				C148.37,533.95,146.32,533.93,144.27,533.94L144.27,533.94z"/>
			<path id="Path_407" class="st5" d="M144.23,511.25c7.5,0,8.88-4.1,8.88-5.58c-0.03-1.48-1.25-2.65-2.72-2.62
				c-1.44,0.03-2.59,1.18-2.62,2.62l-0.95,26.01"/>
			<path id="Path_408" class="st5" d="M144.27,511.25c-7.5,0-8.88-4.1-8.88-5.58c0.03-1.48,1.25-2.65,2.72-2.62
				c1.44,0.03,2.59,1.18,2.62,2.62l0.95,26.01"/>
			<path id="Path_409" class="st6" d="M152.86,537.04c0.14-0.23,0.26-0.46,0.35-0.71c0.51-0.61,0.32-1.56-0.35-2.69
				c1.16-1.89,0.45-3.65-1.49-3.66c-4.76-0.04-9.51-0.04-14.27,0c-1.13,0-2.05,0.91-2.05,2.04c0,0.37,0.1,0.74,0.29,1.06
				c0.1,0.2,0.23,0.38,0.33,0.55c-0.6,1.05-0.81,1.93-0.45,2.53c0.03,0.11,0.07,0.21,0.12,0.31c0.1,0.2,0.23,0.38,0.33,0.55
				c-0.6,1.05-0.81,1.93-0.45,2.53c0.03,0.11,0.07,0.21,0.12,0.31c0.1,0.2,0.23,0.38,0.33,0.55c-0.77,1.34-0.9,2.39-0.05,2.96
				c0.96,0.49,1.97,0.86,3.02,1.1c-0.28,1.56,0.38,2.78,1.79,2.81c2.55,0.07,5.11,0.07,7.66,0c1.11-0.06,1.96-1,1.9-2.11
				c-0.01-0.1-0.02-0.2-0.04-0.3c-0.03-0.21-0.08-0.41-0.07-0.39c1.05-0.25,2.06-0.62,3.02-1.11c0.86-0.58,0.73-1.65-0.05-2.96
				c0.14-0.23,0.26-0.46,0.35-0.71C153.72,539.11,153.54,538.16,152.86,537.04z"/>
		</g>
	</g>
	<g id="Group_363">
		<line id="Line_41" class="st7" x1="144.34" y1="478.41" x2="144.34" y2="464.3"/>
		<line id="Line_42" class="st7" x1="161.84" y1="485.85" x2="171.24" y2="476.44"/>
		<line id="Line_43" class="st7" x1="168.95" y1="503.49" x2="183.05" y2="503.49"/>
		<g id="Group_362">
			<line id="Line_44" class="st8" x1="126.37" y1="520.69" x2="116.96" y2="530.1"/>
			<line id="Line_45" class="st7" x1="161.5" y1="521.02" x2="170.91" y2="530.43"/>
		</g>
		<line id="Line_46" class="st8" x1="119.26" y1="503.02" x2="105.15" y2="503.02"/>
		<line id="Line_47" class="st7" x1="126.7" y1="485.52" x2="117.29" y2="476.11"/>
	</g>
</g>
</svg>
