<svg id="Component_5_1" data-name="Component 5 – 1" xmlns="http://www.w3.org/2000/svg" width="16.498" height="16.497" viewBox="0 0 16.498 16.497">
  <g id="Group_403" data-name="Group 403">
    <g id="Group_402" data-name="Group 402" transform="translate(0)">
      <path id="Path_441" data-name="Path 441" d="M70.184,664.4a8.249,8.249,0,0,0-5.833,14.081l11.666-11.665A8.223,8.223,0,0,0,70.184,664.4Z" transform="translate(-61.935 -664.4)" fill="#33608c" style="isolation: isolate"/>
      <path id="Path_442" data-name="Path 442" d="M68.047,682.178a8.249,8.249,0,1,0,11.666-11.666Z" transform="translate(-65.631 -668.096)" fill="#1f435e" style="isolation: isolate"/>
    </g>
  </g>
  <g id="Group_404" data-name="Group 404" transform="translate(4.807 2.63)" style="isolation: isolate">
    <path id="Path_443" data-name="Path 443" d="M77.793,671.053a4.04,4.04,0,0,0-3.635,1.988.375.375,0,0,0,.085.507l1.082.821a.374.374,0,0,0,.52-.066c.557-.707.939-1.116,1.787-1.116.637,0,1.425.408,1.425,1.028,0,.467-.385.707-1.015,1.06-.734.411-1.7.923-1.7,2.2v.125a.374.374,0,0,0,.374.374h1.746a.374.374,0,0,0,.374-.374v-.042c0-.887,2.595-.924,2.595-3.327C81.427,672.425,79.552,671.053,77.793,671.053Z" transform="translate(-74.094 -671.053)" fill="#fff" style="isolation: isolate"/>
    <path id="Path_444" data-name="Path 444" d="M80.731,691.788a1.435,1.435,0,1,0,1.434,1.435,1.434,1.434,0,0,0-1.434-1.435Z" transform="translate(-77.24 -683.592)" fill="#fff" style="isolation: isolate"/>
  </g>
</svg>
