<?xml version="1.0" encoding="utf-8"?>
<!-- Generator: Adobe Illustrator 25.4.2, SVG Export Plug-In . SVG Version: 6.00 Build 0)  -->
<svg version="1.1" id="Layer_1" xmlns="http://www.w3.org/2000/svg" xmlns:xlink="http://www.w3.org/1999/xlink" x="0px" y="0px"
	 viewBox="0 0 130 139" style="enable-background:new 0 0 130 139;" xml:space="preserve">
<style type="text/css">
	.st0{fill:#85A0BA;}
	.st1{fill:#FFFFFF;}
	.st2{fill:#D6DFE8;}
	.st3{fill:#33608C;}
	.st4{fill:#1F435E;}
	.st5{fill:none;stroke:#33608C;stroke-width:1.045;stroke-linecap:round;stroke-linejoin:round;}
	.st6{fill:#2B557F;}
	.st7{fill:none;stroke:#2B557F;stroke-width:1.045;stroke-linecap:round;stroke-linejoin:round;}
</style>
<g id="Group_375" transform="translate(-57.701 -330.769)">
	<path id="Path_423" class="st0" d="M146.43,394.32c-0.79-1.83-2.3-3.25-4.19-3.91c-2.49-0.82-4.98-1.61-7.46-2.44
		c-1-0.34-1.79-0.68-2.78-1.05c-0.37-0.24-0.59-0.64-0.61-1.07c-0.01-0.13-0.06-4.03-0.06-4.03c1.04-1.49,1.94-3.08,2.66-4.75
		c1.61-0.01,2.92-3.46,2.92-3.46s1.17-4.53-0.37-5.38c0.06-0.5,0.09-1.01,0.1-1.51v-3.15c0-5.9-5.16-10.73-11.47-10.73h-0.03
		c-6.31,0-11.47,4.83-11.47,10.73v3.15c0,0.5,0.04,1.01,0.1,1.51c-1.53,0.85-0.37,5.38-0.37,5.38s1.3,3.45,2.92,3.46
		c0.73,1.67,1.62,3.26,2.66,4.76v4.09c0.06,0.48-0.26,0.91-0.74,0.99c-2.02,0.7-3.78,1.34-5.8,2.05c-1.52,0.53-3.06,1.01-4.58,1.54
		c-1.74,0.66-3.16,1.98-3.92,3.68c-0.96,1.96-1.53,4.09-1.7,6.26c-0.02,0.18-0.09,2.1-0.09,2.89c0.25,0.35,0.66,0.54,1.09,0.5
		c14.54-0.01,29.07-0.01,43.61-0.01c1.17,0,1.3-0.14,1.29-1.45C148.19,399.59,147.6,396.84,146.43,394.32z"/>
	<g id="Group_374">
		<path id="Path_424" class="st1" d="M123.17,401.4c-1.64-1.39-5.08-3.21-15.06-2.71c-5.89,0.18-11.74-1.01-17.1-3.45l-3.82,2.75
			l4.06,42.3c5.13,2.88,10.99,4.18,16.86,3.75c4.81-0.53,9.67,0.5,13.86,2.92c0.18,0.1,0.37,0.21,0.55,0.33
			c1.14,0.71,2.17,1.59,3.06,2.61v-44.17C125.57,403.99,124.8,402.79,123.17,401.4z"/>
		<path id="Path_425" class="st2" d="M127.94,401.4c1.64-1.39,5.08-3.21,15.06-2.71c5.89,0.18,11.74-1.01,17.1-3.45l3.82,2.75
			l-4.06,42.3c-5.13,2.88-10.99,4.18-16.86,3.75c-4.81-0.53-9.67,0.5-13.86,2.92c-0.18,0.1-0.37,0.21-0.55,0.33
			c-1.14,0.71-2.17,1.59-3.06,2.61v-44.17C125.53,403.99,126.3,402.79,127.94,401.4z"/>
		<path id="Path_426" class="st3" d="M125.57,452.93l-40.62-9.82v-45l40.62,9.82V452.93z"/>
		<path id="Path_427" class="st4" d="M125.57,452.93l40.62-9.82v-45l-40.62,9.82L125.57,452.93L125.57,452.93z"/>
	</g>
	<line id="Line_51" class="st5" x1="85.66" y1="398.18" x2="125.57" y2="407.93"/>
	<path id="Rectangle_585" class="st6" d="M120.63,406.71h9.4c0.53,0,0.95,0.43,0.95,0.95v44.41c0,0.53-0.43,0.95-0.95,0.95h-9.4
		c-0.53,0-0.95-0.43-0.95-0.95v-44.41C119.68,407.14,120.11,406.71,120.63,406.71z"/>
	<line id="Line_52" class="st5" x1="119.8" y1="406.71" x2="130.64" y2="406.71"/>
	<line id="Line_53" class="st7" x1="165.49" y1="398.2" x2="130.97" y2="406.69"/>
</g>
</svg>
